<mxfile host="app.diagrams.net" modified="2021-06-05T08:51:47.725Z" agent="5.0 (Windows NT 10.0; Win64; x64) AppleWebKit/537.36 (KHTML, like Gecko) Chrome/88.0.4324.182 Safari/537.36" etag="3loUiaBzoL7eY-QrW1hT" version="14.7.6" type="github">
  <diagram id="QXUX85D0oPMdDGSsIz5d" name="Page-1">
    <mxGraphModel dx="1358" dy="876" grid="1" gridSize="10" guides="1" tooltips="1" connect="1" arrows="1" fold="1" page="1" pageScale="1" pageWidth="3300" pageHeight="4681" math="0" shadow="0">
      <root>
        <mxCell id="0" />
        <mxCell id="1" parent="0" />
        <mxCell id="MmqWa1gA0ANEtJpZjaHe-17" value="" style="edgeStyle=orthogonalEdgeStyle;rounded=0;orthogonalLoop=1;jettySize=auto;html=1;" edge="1" parent="1" source="MmqWa1gA0ANEtJpZjaHe-1" target="MmqWa1gA0ANEtJpZjaHe-15">
          <mxGeometry relative="1" as="geometry" />
        </mxCell>
        <mxCell id="MmqWa1gA0ANEtJpZjaHe-1" value="&lt;div&gt;FUNCTION compare_quantity(car_id, data_transactions, from_datetime, to_datetime, data_carlist)&lt;/div&gt;" style="shape=process;whiteSpace=wrap;html=1;backgroundOutline=1;" vertex="1" parent="1">
          <mxGeometry x="342.86" y="110" width="290" height="90" as="geometry" />
        </mxCell>
        <mxCell id="MmqWa1gA0ANEtJpZjaHe-2" value="" style="group" vertex="1" connectable="0" parent="1">
          <mxGeometry x="345" y="360" width="300" height="90" as="geometry" />
        </mxCell>
        <mxCell id="MmqWa1gA0ANEtJpZjaHe-3" value="" style="shape=hexagon;perimeter=hexagonPerimeter2;whiteSpace=wrap;html=1;fixedSize=1;" vertex="1" parent="MmqWa1gA0ANEtJpZjaHe-2">
          <mxGeometry width="300.00000000000006" height="90" as="geometry" />
        </mxCell>
        <mxCell id="MmqWa1gA0ANEtJpZjaHe-4" value="i" style="text;html=1;strokeColor=none;fillColor=none;align=center;verticalAlign=middle;whiteSpace=wrap;rounded=0;" vertex="1" parent="MmqWa1gA0ANEtJpZjaHe-2">
          <mxGeometry x="114.28571428571429" width="57.142857142857146" height="20" as="geometry" />
        </mxCell>
        <mxCell id="MmqWa1gA0ANEtJpZjaHe-5" value="0" style="text;html=1;strokeColor=none;fillColor=none;align=center;verticalAlign=middle;whiteSpace=wrap;rounded=0;" vertex="1" parent="MmqWa1gA0ANEtJpZjaHe-2">
          <mxGeometry x="0.0028571428571382285" y="35" width="39.28928571428572" height="15" as="geometry" />
        </mxCell>
        <mxCell id="MmqWa1gA0ANEtJpZjaHe-6" value="1" style="text;html=1;strokeColor=none;fillColor=none;align=center;verticalAlign=middle;whiteSpace=wrap;rounded=0;" vertex="1" parent="MmqWa1gA0ANEtJpZjaHe-2">
          <mxGeometry x="114.28571428571429" y="70" width="57.142857142857146" height="20" as="geometry" />
        </mxCell>
        <mxCell id="MmqWa1gA0ANEtJpZjaHe-7" value="&amp;lt;range(len(data_transactions))" style="text;html=1;strokeColor=none;fillColor=none;align=center;verticalAlign=middle;whiteSpace=wrap;rounded=0;" vertex="1" parent="MmqWa1gA0ANEtJpZjaHe-2">
          <mxGeometry x="173.7577639751553" y="35" width="57.142857142857146" height="20" as="geometry" />
        </mxCell>
        <mxCell id="MmqWa1gA0ANEtJpZjaHe-32" value="" style="edgeStyle=orthogonalEdgeStyle;rounded=0;orthogonalLoop=1;jettySize=auto;html=1;" edge="1" parent="1" source="MmqWa1gA0ANEtJpZjaHe-9" target="MmqWa1gA0ANEtJpZjaHe-10">
          <mxGeometry relative="1" as="geometry" />
        </mxCell>
        <mxCell id="MmqWa1gA0ANEtJpZjaHe-39" value="" style="edgeStyle=orthogonalEdgeStyle;rounded=0;orthogonalLoop=1;jettySize=auto;html=1;" edge="1" parent="1" source="MmqWa1gA0ANEtJpZjaHe-9" target="MmqWa1gA0ANEtJpZjaHe-14">
          <mxGeometry relative="1" as="geometry" />
        </mxCell>
        <mxCell id="MmqWa1gA0ANEtJpZjaHe-9" value="car_id == data_transactions[i][2]" style="rhombus;whiteSpace=wrap;html=1;" vertex="1" parent="1">
          <mxGeometry x="372.86" y="510" width="230" height="100" as="geometry" />
        </mxCell>
        <mxCell id="MmqWa1gA0ANEtJpZjaHe-36" value="" style="edgeStyle=orthogonalEdgeStyle;rounded=0;orthogonalLoop=1;jettySize=auto;html=1;" edge="1" parent="1" source="MmqWa1gA0ANEtJpZjaHe-10" target="MmqWa1gA0ANEtJpZjaHe-12">
          <mxGeometry relative="1" as="geometry" />
        </mxCell>
        <mxCell id="MmqWa1gA0ANEtJpZjaHe-10" value="origin_fromtime = datetime.datetime.strptime(data_transactions[i][7] + &quot; &quot; + data_transactions[i][8], &quot;%d-%m-%Y %H:%M:%S&quot;)" style="rounded=1;whiteSpace=wrap;html=1;" vertex="1" parent="1">
          <mxGeometry x="344.29" y="650" width="287.14" height="80" as="geometry" />
        </mxCell>
        <mxCell id="MmqWa1gA0ANEtJpZjaHe-37" value="" style="edgeStyle=orthogonalEdgeStyle;rounded=0;orthogonalLoop=1;jettySize=auto;html=1;" edge="1" parent="1" source="MmqWa1gA0ANEtJpZjaHe-12" target="MmqWa1gA0ANEtJpZjaHe-13">
          <mxGeometry relative="1" as="geometry" />
        </mxCell>
        <mxCell id="MmqWa1gA0ANEtJpZjaHe-12" value="origin_totime = datetime.datetime.strptime(data_transactions[i][9] + &quot; &quot; + data_transactions[i][10], &quot;%d-%m-%Y %H:%M:%S&quot;)" style="rounded=1;whiteSpace=wrap;html=1;" vertex="1" parent="1">
          <mxGeometry x="337.86" y="785" width="300" height="70" as="geometry" />
        </mxCell>
        <mxCell id="MmqWa1gA0ANEtJpZjaHe-38" value="" style="edgeStyle=orthogonalEdgeStyle;rounded=0;orthogonalLoop=1;jettySize=auto;html=1;" edge="1" parent="1" source="MmqWa1gA0ANEtJpZjaHe-13" target="MmqWa1gA0ANEtJpZjaHe-18">
          <mxGeometry relative="1" as="geometry" />
        </mxCell>
        <mxCell id="MmqWa1gA0ANEtJpZjaHe-44" style="edgeStyle=orthogonalEdgeStyle;rounded=0;orthogonalLoop=1;jettySize=auto;html=1;" edge="1" parent="1" source="MmqWa1gA0ANEtJpZjaHe-13">
          <mxGeometry relative="1" as="geometry">
            <mxPoint x="100" y="1035" as="targetPoint" />
          </mxGeometry>
        </mxCell>
        <mxCell id="MmqWa1gA0ANEtJpZjaHe-13" value="origin_fromtime &lt;= from_datetime &lt;= origin_totime) OR (origin_fromtime &lt;= to_datetime &lt;= origin_totime) OR (from_datetime &lt;= origin_fromtime &lt;= to_datetime) OR (from_datetime &lt;= origin_totime &lt;= to_datetime" style="rhombus;whiteSpace=wrap;html=1;" vertex="1" parent="1">
          <mxGeometry x="162.86" y="910" width="650" height="250" as="geometry" />
        </mxCell>
        <mxCell id="MmqWa1gA0ANEtJpZjaHe-40" style="edgeStyle=orthogonalEdgeStyle;rounded=0;orthogonalLoop=1;jettySize=auto;html=1;entryX=0;entryY=0.75;entryDx=0;entryDy=0;" edge="1" parent="1" source="MmqWa1gA0ANEtJpZjaHe-14" target="MmqWa1gA0ANEtJpZjaHe-5">
          <mxGeometry relative="1" as="geometry">
            <Array as="points">
              <mxPoint x="100" y="406" />
            </Array>
          </mxGeometry>
        </mxCell>
        <mxCell id="MmqWa1gA0ANEtJpZjaHe-14" value="i" style="ellipse;whiteSpace=wrap;html=1;aspect=fixed;" vertex="1" parent="1">
          <mxGeometry x="80" y="540" width="40" height="40" as="geometry" />
        </mxCell>
        <mxCell id="MmqWa1gA0ANEtJpZjaHe-16" style="edgeStyle=orthogonalEdgeStyle;rounded=0;orthogonalLoop=1;jettySize=auto;html=1;entryX=0.5;entryY=0;entryDx=0;entryDy=0;" edge="1" parent="1" source="MmqWa1gA0ANEtJpZjaHe-15" target="MmqWa1gA0ANEtJpZjaHe-4">
          <mxGeometry relative="1" as="geometry" />
        </mxCell>
        <mxCell id="MmqWa1gA0ANEtJpZjaHe-15" value="count = 0" style="rounded=1;whiteSpace=wrap;html=1;" vertex="1" parent="1">
          <mxGeometry x="372.86" y="260" width="230" height="40" as="geometry" />
        </mxCell>
        <mxCell id="MmqWa1gA0ANEtJpZjaHe-43" style="edgeStyle=orthogonalEdgeStyle;rounded=0;orthogonalLoop=1;jettySize=auto;html=1;entryX=0.5;entryY=1;entryDx=0;entryDy=0;" edge="1" parent="1" source="MmqWa1gA0ANEtJpZjaHe-18" target="MmqWa1gA0ANEtJpZjaHe-14">
          <mxGeometry relative="1" as="geometry" />
        </mxCell>
        <mxCell id="MmqWa1gA0ANEtJpZjaHe-18" value="count += 1" style="rounded=1;whiteSpace=wrap;html=1;" vertex="1" parent="1">
          <mxGeometry x="372.86" y="1240" width="230" height="40" as="geometry" />
        </mxCell>
        <mxCell id="MmqWa1gA0ANEtJpZjaHe-19" value="" style="group" vertex="1" connectable="0" parent="1">
          <mxGeometry x="800" y="235" width="230" height="90" as="geometry" />
        </mxCell>
        <mxCell id="MmqWa1gA0ANEtJpZjaHe-20" value="" style="shape=hexagon;perimeter=hexagonPerimeter2;whiteSpace=wrap;html=1;fixedSize=1;" vertex="1" parent="MmqWa1gA0ANEtJpZjaHe-19">
          <mxGeometry width="230.00000000000003" height="90" as="geometry" />
        </mxCell>
        <mxCell id="MmqWa1gA0ANEtJpZjaHe-21" value="i" style="text;html=1;strokeColor=none;fillColor=none;align=center;verticalAlign=middle;whiteSpace=wrap;rounded=0;" vertex="1" parent="MmqWa1gA0ANEtJpZjaHe-19">
          <mxGeometry x="87.61904761904762" width="43.80952380952381" height="20" as="geometry" />
        </mxCell>
        <mxCell id="MmqWa1gA0ANEtJpZjaHe-22" value="0" style="text;html=1;strokeColor=none;fillColor=none;align=center;verticalAlign=middle;whiteSpace=wrap;rounded=0;" vertex="1" parent="MmqWa1gA0ANEtJpZjaHe-19">
          <mxGeometry x="10.952380952380953" y="35" width="43.80952380952381" height="20" as="geometry" />
        </mxCell>
        <mxCell id="MmqWa1gA0ANEtJpZjaHe-23" value="1" style="text;html=1;strokeColor=none;fillColor=none;align=center;verticalAlign=middle;whiteSpace=wrap;rounded=0;" vertex="1" parent="MmqWa1gA0ANEtJpZjaHe-19">
          <mxGeometry x="87.61904761904762" y="70" width="43.80952380952381" height="20" as="geometry" />
        </mxCell>
        <mxCell id="MmqWa1gA0ANEtJpZjaHe-24" value="&amp;lt;range(len(data_carlist))" style="text;html=1;strokeColor=none;fillColor=none;align=center;verticalAlign=middle;whiteSpace=wrap;rounded=0;" vertex="1" parent="MmqWa1gA0ANEtJpZjaHe-19">
          <mxGeometry x="139.9957142857143" y="35" width="43.80952380952381" height="20" as="geometry" />
        </mxCell>
        <mxCell id="MmqWa1gA0ANEtJpZjaHe-55" value="" style="edgeStyle=orthogonalEdgeStyle;rounded=0;orthogonalLoop=1;jettySize=auto;html=1;" edge="1" parent="1" source="MmqWa1gA0ANEtJpZjaHe-25" target="MmqWa1gA0ANEtJpZjaHe-26">
          <mxGeometry relative="1" as="geometry" />
        </mxCell>
        <mxCell id="MmqWa1gA0ANEtJpZjaHe-57" value="" style="edgeStyle=orthogonalEdgeStyle;rounded=0;orthogonalLoop=1;jettySize=auto;html=1;" edge="1" parent="1" source="MmqWa1gA0ANEtJpZjaHe-25" target="MmqWa1gA0ANEtJpZjaHe-27">
          <mxGeometry relative="1" as="geometry" />
        </mxCell>
        <mxCell id="MmqWa1gA0ANEtJpZjaHe-25" value="data_carlist[i][0] == car_id" style="rhombus;whiteSpace=wrap;html=1;" vertex="1" parent="1">
          <mxGeometry x="820" y="380" width="190" height="100" as="geometry" />
        </mxCell>
        <mxCell id="MmqWa1gA0ANEtJpZjaHe-56" value="" style="edgeStyle=orthogonalEdgeStyle;rounded=0;orthogonalLoop=1;jettySize=auto;html=1;" edge="1" parent="1" source="MmqWa1gA0ANEtJpZjaHe-26" target="MmqWa1gA0ANEtJpZjaHe-48">
          <mxGeometry relative="1" as="geometry" />
        </mxCell>
        <mxCell id="MmqWa1gA0ANEtJpZjaHe-26" value="available_quantity = data_carlist[i][6]" style="rounded=1;whiteSpace=wrap;html=1;" vertex="1" parent="1">
          <mxGeometry x="842.5" y="530" width="145" height="40" as="geometry" />
        </mxCell>
        <mxCell id="MmqWa1gA0ANEtJpZjaHe-58" style="edgeStyle=orthogonalEdgeStyle;rounded=0;orthogonalLoop=1;jettySize=auto;html=1;entryX=1;entryY=0.5;entryDx=0;entryDy=0;" edge="1" parent="1" source="MmqWa1gA0ANEtJpZjaHe-27" target="MmqWa1gA0ANEtJpZjaHe-20">
          <mxGeometry relative="1" as="geometry">
            <Array as="points">
              <mxPoint x="1110" y="280" />
            </Array>
          </mxGeometry>
        </mxCell>
        <mxCell id="MmqWa1gA0ANEtJpZjaHe-27" value="i" style="ellipse;whiteSpace=wrap;html=1;aspect=fixed;" vertex="1" parent="1">
          <mxGeometry x="1090" y="410" width="40" height="40" as="geometry" />
        </mxCell>
        <mxCell id="MmqWa1gA0ANEtJpZjaHe-63" value="" style="edgeStyle=orthogonalEdgeStyle;rounded=0;orthogonalLoop=1;jettySize=auto;html=1;" edge="1" parent="1" source="MmqWa1gA0ANEtJpZjaHe-28" target="MmqWa1gA0ANEtJpZjaHe-29">
          <mxGeometry relative="1" as="geometry" />
        </mxCell>
        <mxCell id="MmqWa1gA0ANEtJpZjaHe-64" value="" style="edgeStyle=orthogonalEdgeStyle;rounded=0;orthogonalLoop=1;jettySize=auto;html=1;" edge="1" parent="1" source="MmqWa1gA0ANEtJpZjaHe-28" target="MmqWa1gA0ANEtJpZjaHe-30">
          <mxGeometry relative="1" as="geometry" />
        </mxCell>
        <mxCell id="MmqWa1gA0ANEtJpZjaHe-28" value="int(available_quantity) == count" style="rhombus;whiteSpace=wrap;html=1;" vertex="1" parent="1">
          <mxGeometry x="815" y="720" width="200" height="100" as="geometry" />
        </mxCell>
        <mxCell id="MmqWa1gA0ANEtJpZjaHe-29" value="RETURN 0" style="ellipse;whiteSpace=wrap;html=1;" vertex="1" parent="1">
          <mxGeometry x="870" y="860" width="90" height="80" as="geometry" />
        </mxCell>
        <mxCell id="MmqWa1gA0ANEtJpZjaHe-30" value="RETURN 1" style="ellipse;whiteSpace=wrap;html=1;" vertex="1" parent="1">
          <mxGeometry x="1065" y="730" width="90" height="80" as="geometry" />
        </mxCell>
        <mxCell id="MmqWa1gA0ANEtJpZjaHe-31" value="" style="edgeStyle=orthogonalEdgeStyle;rounded=0;orthogonalLoop=1;jettySize=auto;html=1;exitX=0.5;exitY=1;exitDx=0;exitDy=0;" edge="1" parent="1" source="MmqWa1gA0ANEtJpZjaHe-6" target="MmqWa1gA0ANEtJpZjaHe-9">
          <mxGeometry relative="1" as="geometry" />
        </mxCell>
        <mxCell id="MmqWa1gA0ANEtJpZjaHe-41" value="True" style="text;html=1;align=center;verticalAlign=middle;resizable=0;points=[];autosize=1;strokeColor=none;" vertex="1" parent="1">
          <mxGeometry x="490" y="1160" width="40" height="20" as="geometry" />
        </mxCell>
        <mxCell id="MmqWa1gA0ANEtJpZjaHe-45" value="False" style="text;html=1;align=center;verticalAlign=middle;resizable=0;points=[];autosize=1;strokeColor=none;" vertex="1" parent="1">
          <mxGeometry x="123" y="1010" width="40" height="20" as="geometry" />
        </mxCell>
        <mxCell id="MmqWa1gA0ANEtJpZjaHe-46" style="edgeStyle=orthogonalEdgeStyle;rounded=0;orthogonalLoop=1;jettySize=auto;html=1;entryX=0.5;entryY=0;entryDx=0;entryDy=0;" edge="1" parent="1" source="MmqWa1gA0ANEtJpZjaHe-3" target="MmqWa1gA0ANEtJpZjaHe-21">
          <mxGeometry relative="1" as="geometry">
            <Array as="points">
              <mxPoint x="730" y="405" />
              <mxPoint x="730" y="190" />
              <mxPoint x="910" y="190" />
            </Array>
          </mxGeometry>
        </mxCell>
        <mxCell id="MmqWa1gA0ANEtJpZjaHe-47" value="" style="edgeStyle=orthogonalEdgeStyle;rounded=0;orthogonalLoop=1;jettySize=auto;html=1;" edge="1" parent="1" source="MmqWa1gA0ANEtJpZjaHe-20" target="MmqWa1gA0ANEtJpZjaHe-25">
          <mxGeometry relative="1" as="geometry" />
        </mxCell>
        <mxCell id="MmqWa1gA0ANEtJpZjaHe-59" value="" style="edgeStyle=orthogonalEdgeStyle;rounded=0;orthogonalLoop=1;jettySize=auto;html=1;" edge="1" parent="1" source="MmqWa1gA0ANEtJpZjaHe-48" target="MmqWa1gA0ANEtJpZjaHe-28">
          <mxGeometry relative="1" as="geometry" />
        </mxCell>
        <mxCell id="MmqWa1gA0ANEtJpZjaHe-48" value="BREAK" style="rounded=1;whiteSpace=wrap;html=1;" vertex="1" parent="1">
          <mxGeometry x="842.5" y="600" width="145" height="40" as="geometry" />
        </mxCell>
        <mxCell id="MmqWa1gA0ANEtJpZjaHe-61" style="edgeStyle=orthogonalEdgeStyle;rounded=0;orthogonalLoop=1;jettySize=auto;html=1;" edge="1" parent="1" source="MmqWa1gA0ANEtJpZjaHe-20">
          <mxGeometry relative="1" as="geometry">
            <mxPoint x="915" y="690" as="targetPoint" />
            <Array as="points">
              <mxPoint x="760" y="280" />
              <mxPoint x="760" y="690" />
            </Array>
          </mxGeometry>
        </mxCell>
        <mxCell id="MmqWa1gA0ANEtJpZjaHe-65" value="False" style="text;html=1;align=center;verticalAlign=middle;resizable=0;points=[];autosize=1;strokeColor=none;" vertex="1" parent="1">
          <mxGeometry x="1015" y="750" width="40" height="20" as="geometry" />
        </mxCell>
        <mxCell id="MmqWa1gA0ANEtJpZjaHe-66" value="True" style="text;html=1;align=center;verticalAlign=middle;resizable=0;points=[];autosize=1;strokeColor=none;" vertex="1" parent="1">
          <mxGeometry x="920" y="820" width="40" height="20" as="geometry" />
        </mxCell>
        <mxCell id="MmqWa1gA0ANEtJpZjaHe-67" value="True" style="text;html=1;align=center;verticalAlign=middle;resizable=0;points=[];autosize=1;strokeColor=none;" vertex="1" parent="1">
          <mxGeometry x="920" y="480" width="40" height="20" as="geometry" />
        </mxCell>
        <mxCell id="MmqWa1gA0ANEtJpZjaHe-68" value="False" style="text;html=1;align=center;verticalAlign=middle;resizable=0;points=[];autosize=1;strokeColor=none;" vertex="1" parent="1">
          <mxGeometry x="1015" y="410" width="40" height="20" as="geometry" />
        </mxCell>
      </root>
    </mxGraphModel>
  </diagram>
</mxfile>
